ply
                format ascii 1.0
                element vertex 80
                property float x
                property float y
                property float z
                property uchar red
                property uchar green
                property uchar blue
                end_header
            -0.036364 4.111168 0.256224 255 0 0
-0.008126 4.111172 0.254603 255 0 0
0.020112 4.111176 0.252982 255 0 0
0.048350 4.111180 0.251361 255 0 0
0.076587 4.111184 0.249740 255 0 0
0.104825 4.111188 0.248119 255 0 0
0.133063 4.111192 0.246498 255 0 0
0.161301 4.111196 0.244878 255 0 0
0.189539 4.111200 0.243257 255 0 0
0.217776 4.111204 0.241636 255 0 0
0.246014 4.111208 0.240015 255 0 0
0.247635 4.111205 0.268253 255 0 0
0.249256 4.111203 0.296490 255 0 0
0.250877 4.111201 0.324728 255 0 0
0.252498 4.111198 0.352966 255 0 0
0.254119 4.111196 0.381204 255 0 0
0.255740 4.111194 0.409442 255 0 0
0.257360 4.111191 0.437679 255 0 0
0.258981 4.111189 0.465917 255 0 0
0.260602 4.111186 0.494155 255 0 0
0.262223 4.111184 0.522393 255 0 0
0.233985 4.111180 0.524014 255 0 0
0.205748 4.111176 0.525635 255 0 0
0.177510 4.111172 0.527255 255 0 0
0.149272 4.111168 0.528876 255 0 0
0.121034 4.111164 0.530497 255 0 0
0.092796 4.111160 0.532118 255 0 0
0.064559 4.111157 0.533739 255 0 0
0.036321 4.111153 0.535360 255 0 0
0.008083 4.111149 0.536981 255 0 0
-0.020155 4.111145 0.538602 255 0 0
-0.021776 4.111147 0.510364 255 0 0
-0.023397 4.111149 0.482126 255 0 0
-0.025017 4.111152 0.453888 255 0 0
-0.026638 4.111154 0.425651 255 0 0
-0.028259 4.111157 0.397413 255 0 0
-0.029880 4.111159 0.369175 255 0 0
-0.031501 4.111161 0.340937 255 0 0
-0.033122 4.111164 0.312699 255 0 0
-0.034743 4.111166 0.284462 255 0 0
0.246014 4.111208 0.240015 255 0 0
0.232708 4.091205 0.254942 255 0 0
0.219403 4.071201 0.269870 255 0 0
0.206097 4.051198 0.284797 255 0 0
0.192791 4.031195 0.299725 255 0 0
0.179485 4.011192 0.314652 255 0 0
0.166180 3.991189 0.329580 255 0 0
0.152874 3.971186 0.344507 255 0 0
0.139568 3.951183 0.359435 255 0 0
0.126262 3.931179 0.374362 255 0 0
0.262223 4.111184 0.522393 255 0 0
0.247297 4.091183 0.509082 255 0 0
0.232370 4.071183 0.495772 255 0 0
0.217443 4.051182 0.482462 255 0 0
0.202517 4.031181 0.469152 255 0 0
0.187590 4.011180 0.455841 255 0 0
0.172663 3.991179 0.442531 255 0 0
0.157737 3.971179 0.429221 255 0 0
0.142810 3.951178 0.415911 255 0 0
0.127883 3.931177 0.402600 255 0 0
-0.020155 4.111145 0.538602 255 0 0
-0.006844 4.091148 0.523671 255 0 0
0.006468 4.071151 0.508739 255 0 0
0.019779 4.051154 0.493808 255 0 0
0.033090 4.031157 0.478877 255 0 0
0.046401 4.011160 0.463946 255 0 0
0.059712 3.991164 0.449015 255 0 0
0.073023 3.971167 0.434084 255 0 0
0.086334 3.951170 0.419152 255 0 0
0.099645 3.931173 0.404221 255 0 0
-0.036364 4.111168 0.256224 255 0 0
-0.021432 4.091169 0.269531 255 0 0
-0.006500 4.071170 0.282837 255 0 0
0.008432 4.051171 0.296144 255 0 0
0.023364 4.031172 0.309450 255 0 0
0.038296 4.011172 0.322757 255 0 0
0.053228 3.991173 0.336064 255 0 0
0.068160 3.971174 0.349370 255 0 0
0.083092 3.951175 0.362677 255 0 0
0.098025 3.931175 0.375983 255 0 0
